<?xml version="1.0" encoding="utf-8"?>
<!-- Generator: Adobe Illustrator 22.0.1, SVG Export Plug-In . SVG Version: 6.00 Build 0)  -->
<svg version="1.1" id="layer" xmlns="http://www.w3.org/2000/svg" xmlns:xlink="http://www.w3.org/1999/xlink" x="0px" y="0px"
	 viewBox="0 0 785.8 195.3" style="enable-background:new 0 0 785.8 195.3;" xml:space="preserve">
<style type="text/css">
	.st0{fill:#FFFFFF;}
	.st1{fill:#3392AE;}
	.st2{fill:#E7E7E7;}
	.st3{fill:#00C5FF;}
	.st4{fill:#FF4A18;}
	.st5{fill:#CDCDCD;}
	.st6{fill:#00B2FF;}
</style>
<g>
	<path class="st0" d="M76.2,23.3C34.1,23.3,0,57.4,0,99.5c0,33.7,21.8,62.2,52.1,72.3c3.8,0.6,5.3-1.6,5.3-3.6
		c0-1.8-0.1-7.8-0.1-14.2c-19.1,3.5-24.1-4.7-25.6-8.9c-0.9-2.2-4.6-9-7.8-10.8c-2.7-1.4-6.5-5-0.1-5.1c6-0.1,10.3,5.5,11.7,7.8
		c6.9,11.5,17.8,8.3,22.2,6.3c0.7-4.9,2.7-8.3,4.9-10.2c-16.9-1.9-34.7-8.5-34.7-37.6c0-8.3,3-15.2,7.8-20.5
		c-0.8-1.9-3.4-9.7,0.8-20.2c0,0,6.4-2,21,7.8c6.1-1.7,12.6-2.6,19-2.6c6.5,0,12.9,0.9,19,2.6c14.6-9.9,20.9-7.8,20.9-7.8
		c4.2,10.5,1.5,18.3,0.8,20.2c4.9,5.3,7.8,12.1,7.8,20.5c0,29.2-17.8,35.7-34.8,37.6c2.8,2.4,5.2,6.9,5.2,14.1
		c0,10.2-0.1,18.4-0.1,20.9c0,2,1.4,4.4,5.2,3.6c31-10.5,51.9-39.6,51.9-72.3C152.4,57.4,118.3,23.3,76.2,23.3L76.2,23.3z"/>
	<g>
		<path class="st0" d="M227.8,154.4h-24.6V48.6h65.3v21.1h-40.7v23.2h34.9V114h-34.9L227.8,154.4L227.8,154.4z"/>
		<path class="st0" d="M296.8,56.1c0,8.4-4.2,12.6-12.6,12.6c-8.2,0-12.3-4.1-12.3-12.4c0-8.4,4.1-12.6,12.3-12.6
			c4.1,0,7.2,0.9,9.4,2.8C295.7,48.3,296.8,51.5,296.8,56.1z M296.4,154.4h-23.8V79h23.8V154.4z"/>
		<path class="st0" d="M332.5,154.4h-23.8V44.6h23.8V154.4z"/>
		<path class="st0" d="M368.6,154.4h-23.8V79h23.4l0.3,5.5c5.1-4.9,12.2-7.3,21.3-7.3c11.6,0,18.8,2.6,21.6,7.8
			c5.7-5.2,13.7-7.8,24-7.8c6.9,0,12,0.8,15.3,2.4s5.5,4,6.7,7.2c1.1,2.8,1.6,7.6,1.6,14.5v53h-23.7v-47.4c0-2.9-0.2-4.9-0.6-6.1
			c-0.9-2.6-3.6-3.9-8.2-3.9c-2.9,0-5.7,0.5-8.4,1.5c-1.6,0.7-2.7,1.5-3.4,2.4c-0.5,0.6-0.7,2.3-0.7,5.2v48.4h-23.8v-47.5
			c0-2.9-0.2-4.9-0.6-6.1c-0.9-2.6-3.4-3.9-7.5-3.9c-3,0-6,0.5-9,1.5c-1.6,0.5-2.7,1.2-3.4,2.1c-0.6,0.9-0.9,2.4-0.9,4.6v49.3H368.6
			z"/>
		<path class="st0" d="M463.5,151.7l3.7-18.9c11,2.7,20.2,4,27.6,4c5.5,0,8.2-1.7,8.2-5.1c0-1.4-0.4-2.5-1.3-3.3
			c-0.8-0.8-2.6-1.5-5.3-2.1l-10.6-2.1c-6.9-1.4-12-3.7-15.3-7c-3.3-3.2-4.9-8.5-4.9-15.8c0-16.2,10.5-24.3,31.6-24.3
			c10.6,0,19.4,0.9,26.4,2.7L520.2,99c-9.6-1.8-17.7-2.7-24.3-2.7c-2.8,0-4.7,0.4-5.6,1.2c-1,0.8-1.4,1.9-1.4,3.4
			c0,1.4,0.4,2.4,1.3,3.1c0.8,0.7,2.7,1.4,5.5,2.1l10.5,2.4c7.6,1.8,12.8,4.3,15.7,7.6c2.8,3.2,4.3,8.5,4.3,15.7
			c0,16.2-10.6,24.3-31.9,24.3C481.6,156.2,471.4,154.7,463.5,151.7z"/>
		<path class="st0" d="M557.6,154.4H533V48.6h24.6v40.7h34.9V48.6h24.6v105.7h-24.6v-44.2h-34.9V154.4z"/>
		<path class="st0" d="M700.8,154.4h-23.4l-0.3-6.1c-2.3,2.4-5.6,4.3-9.8,5.8c-4.2,1.4-8.5,2.2-12.8,2.2c-6.8,0-11.8-0.8-15.1-2.5
			c-3.3-1.6-5.6-4.1-6.9-7.3c-1.4-3.6-2.1-8.4-2.1-14.4v-53h23.8v47.5c0,2.9,0.2,4.9,0.6,6.1c0.8,2.6,3.6,3.9,8.4,3.9
			c3,0,6.1-0.5,9.4-1.6c1.6-0.5,2.7-1.2,3.3-2.1c0.7-0.9,1-2.4,1-4.6V79h23.8L700.8,154.4L700.8,154.4z"/>
		<path class="st0" d="M733.7,154.4H713V44.6h23.8v38.3c4.9-3.8,12.3-5.7,22.2-5.7c9.2,0,16,2.9,20.3,8.8c4.3,5.8,6.5,15.5,6.5,29
			c0,8.3-0.7,15.1-2.1,20.5c-1.4,5.4-3.6,9.5-6.7,12.4c-3.1,2.8-6.6,4.8-10.6,5.8s-9,1.6-15.1,1.6c-3.8,0-7.3-0.5-10.6-1.4
			c-3.2-0.9-5.5-2.1-6.8-3.4L733.7,154.4z M736.9,134.9c2.4,1.3,5.7,1.9,9.9,1.9c6.1,0,10.2-1.4,12.2-4.3c2-2.8,3.1-8.4,3.1-16.6
			c0-7.4-0.8-12.4-2.3-15.1s-4.6-4-9.2-4c-5.1,0-9,0.8-11.8,2.4c-0.8,0.6-1.3,1.2-1.5,1.8c-0.2,0.6-0.3,1.6-0.3,3v30.9H736.9z"/>
	</g>
	<g>
		<path class="st1" d="M30.3,91.1H17.8c-0.2,0-0.4-0.2-0.4-0.4v-8.5c0-0.2,0.2-0.4,0.4-0.4h12.6c0.2,0,0.4,0.2,0.4,0.4v8.5
			C30.7,90.9,30.6,91.1,30.3,91.1z"/>
		<path class="st2" d="M126.5,81.8H92.4h-9.9H70.1h-9.9H26c-0.4,0-0.7,0.3-0.7,0.7v30.2c0,0.4,0.3,0.7,0.7,0.7h44
			c0.4,0,0.7-0.3,0.7-0.7V91h11.1v21.7c0,0.4,0.3,0.7,0.7,0.7h44c0.4,0,0.7-0.3,0.7-0.7V82.5C127.1,82.1,126.8,81.8,126.5,81.8z"/>
		<path class="st3" d="M62.4,105.5H33.6c-0.6,0-1.2-0.5-1.2-1.2V89c0-0.6,0.5-1.2,1.2-1.2h28.8c0.6,0,1.2,0.5,1.2,1.2v15.4
			C63.5,105,63,105.5,62.4,105.5z"/>
		<path class="st1" d="M134.7,91.1h-12.6c-0.2,0-0.4-0.2-0.4-0.4v-8.5c0-0.2,0.2-0.4,0.4-0.4h12.6c0.2,0,0.4,0.2,0.4,0.4v8.5
			C135.1,90.9,134.9,91.1,134.7,91.1z"/>
		<path class="st4" d="M118.8,105.5H90c-0.6,0-1.2-0.5-1.2-1.2V89c0-0.6,0.5-1.2,1.2-1.2h28.8c0.6,0,1.2,0.5,1.2,1.2v15.4
			C120,105,119.5,105.5,118.8,105.5z"/>
		<path class="st5" d="M126.5,81.8H120v31.5h6.5c0.4,0,0.7-0.3,0.7-0.7V82.5C127.1,82.1,126.8,81.8,126.5,81.8z"/>
		<path class="st6" d="M62.4,87.8h-6v17.7h6c0.6,0,1.2-0.5,1.2-1.2V89C63.5,88.3,63,87.8,62.4,87.8z"/>
	</g>
</g>
</svg>
