<?xml version="1.0" encoding="utf-8"?>
<!-- Generator: Adobe Illustrator 22.0.1, SVG Export Plug-In . SVG Version: 6.00 Build 0)  -->
<svg version="1.1" id="layer" xmlns="http://www.w3.org/2000/svg" xmlns:xlink="http://www.w3.org/1999/xlink" x="0px" y="0px"
	 viewBox="0 0 582.6 195.3" style="enable-background:new 0 0 582.6 195.3;" xml:space="preserve">
<style type="text/css">
	.st0{fill:#FFFFFF;}
</style>
<g>
	<g>
		<path class="st0" d="M23.6,154.5H-1V48.7h65.3v21.1H23.6V93h34.9v21.1H23.6L23.6,154.5L23.6,154.5z"/>
		<path class="st0" d="M92.6,56.2c0,8.4-4.2,12.6-12.6,12.6c-8.2,0-12.3-4.1-12.3-12.4c0-8.4,4.1-12.6,12.3-12.6
			c4.1,0,7.2,0.9,9.4,2.8C91.5,48.4,92.6,51.6,92.6,56.2z M92.2,154.5H68.4V79.1h23.8V154.5z"/>
		<path class="st0" d="M128.3,154.5h-23.8V44.7h23.8V154.5z"/>
		<path class="st0" d="M164.4,154.5h-23.8V79.1H164l0.3,5.5c5.1-4.9,12.2-7.3,21.3-7.3c11.6,0,18.8,2.6,21.6,7.8
			c5.7-5.2,13.7-7.8,24-7.8c6.9,0,12,0.8,15.3,2.4s5.5,4,6.7,7.2c1.1,2.8,1.6,7.6,1.6,14.5v53h-23.7V107c0-2.9-0.2-4.9-0.6-6.1
			c-0.9-2.6-3.6-3.9-8.2-3.9c-2.9,0-5.7,0.5-8.4,1.5c-1.6,0.7-2.7,1.5-3.4,2.4c-0.5,0.6-0.7,2.3-0.7,5.2v48.4H186V107
			c0-2.9-0.2-4.9-0.6-6.1c-0.9-2.6-3.4-3.9-7.5-3.9c-3,0-6,0.5-9,1.5c-1.6,0.5-2.7,1.2-3.4,2.1c-0.6,0.9-0.9,2.4-0.9,4.6v49.3H164.4
			z"/>
		<path class="st0" d="M259.3,151.8l3.7-18.9c11,2.7,20.2,4,27.6,4c5.5,0,8.2-1.7,8.2-5.1c0-1.4-0.4-2.5-1.3-3.3
			c-0.8-0.8-2.6-1.5-5.3-2.1l-10.6-2.1c-6.9-1.4-12-3.7-15.3-7c-3.3-3.2-4.9-8.5-4.9-15.8c0-16.2,10.5-24.3,31.6-24.3
			c10.6,0,19.4,0.9,26.4,2.7L316,99.1c-9.6-1.8-17.7-2.7-24.3-2.7c-2.8,0-4.7,0.4-5.6,1.2c-1,0.8-1.4,1.9-1.4,3.4
			c0,1.4,0.4,2.4,1.3,3.1c0.8,0.7,2.7,1.4,5.5,2.1l10.5,2.4c7.6,1.8,12.8,4.3,15.7,7.6c2.8,3.2,4.3,8.5,4.3,15.7
			c0,16.2-10.6,24.3-31.9,24.3C277.4,156.3,267.2,154.8,259.3,151.8z"/>
		<path class="st0" d="M353.4,154.5h-24.6V48.7h24.6v40.7h34.9V48.7h24.6v105.7h-24.6v-44.2h-34.9V154.5z"/>
		<path class="st0" d="M496.6,154.5h-23.4l-0.3-6.1c-2.3,2.4-5.6,4.3-9.8,5.8c-4.2,1.4-8.5,2.2-12.8,2.2c-6.8,0-11.8-0.8-15.1-2.5
			c-3.3-1.6-5.6-4.1-6.9-7.3c-1.4-3.6-2.1-8.4-2.1-14.4v-53H450v47.5c0,2.9,0.2,4.9,0.6,6.1c0.8,2.6,3.6,3.9,8.4,3.9
			c3,0,6.1-0.5,9.4-1.6c1.6-0.5,2.7-1.2,3.3-2.1c0.7-0.9,1-2.4,1-4.6V79.1h23.8L496.6,154.5L496.6,154.5z"/>
		<path class="st0" d="M529.5,154.5h-20.7V44.7h23.8V83c4.9-3.8,12.3-5.7,22.2-5.7c9.2,0,16,2.9,20.3,8.8c4.3,5.8,6.5,15.5,6.5,29
			c0,8.3-0.7,15.1-2.1,20.5c-1.4,5.4-3.6,9.5-6.7,12.4c-3.1,2.8-6.6,4.8-10.6,5.8s-9,1.6-15.1,1.6c-3.8,0-7.3-0.5-10.6-1.4
			c-3.2-0.9-5.5-2.1-6.8-3.4L529.5,154.5z M532.7,135c2.4,1.3,5.7,1.9,9.9,1.9c6.1,0,10.2-1.4,12.2-4.3c2-2.8,3.1-8.4,3.1-16.6
			c0-7.4-0.8-12.4-2.3-15.1s-4.6-4-9.2-4c-5.1,0-9,0.8-11.8,2.4c-0.8,0.6-1.3,1.2-1.5,1.8c-0.2,0.6-0.3,1.6-0.3,3V135H532.7z"/>
	</g>
</g>
</svg>
