<?xml version="1.0" encoding="utf-8"?>
<!-- Generator: Adobe Illustrator 22.0.1, SVG Export Plug-In . SVG Version: 6.00 Build 0)  -->
<svg version="1.1" id="layer" xmlns="http://www.w3.org/2000/svg" xmlns:xlink="http://www.w3.org/1999/xlink" x="0px" y="0px"
	 viewBox="0 0 152.4 148.6" style="enable-background:new 0 0 152.4 148.6;" xml:space="preserve">
<style type="text/css">
	.st0{fill:#3392AE;}
	.st1{fill:#E7E7E7;}
	.st2{fill:#00C5FF;}
	.st3{fill:#FF4A18;}
	.st4{fill:#CDCDCD;}
	.st5{fill:#00B2FF;}
</style>
<g>
	<path d="M76.2,0C34.1,0,0,34.1,0,76.2c0,33.7,21.8,62.2,52.1,72.3c3.8,0.6,5.3-1.6,5.3-3.6c0-1.8-0.1-7.8-0.1-14.2
		c-19.1,3.5-24.1-4.7-25.6-8.9c-0.9-2.2-4.6-9-7.8-10.8c-2.7-1.4-6.5-5-0.1-5.1c6-0.1,10.3,5.5,11.7,7.8c6.9,11.5,17.8,8.3,22.2,6.3
		c0.7-4.9,2.7-8.3,4.9-10.2c-16.9-1.9-34.7-8.5-34.7-37.6c0-8.3,3-15.2,7.8-20.5c-0.8-1.9-3.4-9.7,0.8-20.2c0,0,6.4-2,21,7.8
		c6.1-1.7,12.6-2.6,19-2.6c6.5,0,12.9,0.9,19,2.6c14.6-9.9,20.9-7.8,20.9-7.8c4.2,10.5,1.5,18.3,0.8,20.2c4.9,5.3,7.8,12.1,7.8,20.5
		c0,29.2-17.8,35.7-34.8,37.6c2.8,2.4,5.2,6.9,5.2,14.1c0,10.2-0.1,18.4-0.1,20.9c0,2,1.4,4.4,5.2,3.6c31-10.5,51.9-39.6,51.9-72.3
		C152.4,34.1,118.3,0,76.2,0L76.2,0z"/>
	<g>
		<path class="st0" d="M30.3,67.8H17.8c-0.2,0-0.4-0.2-0.4-0.4v-8.5c0-0.2,0.2-0.4,0.4-0.4h12.6c0.2,0,0.4,0.2,0.4,0.4v8.5
			C30.7,67.6,30.6,67.8,30.3,67.8z"/>
		<path class="st1" d="M126.5,58.5H92.4h-9.9H70.1h-9.9H26c-0.4,0-0.7,0.3-0.7,0.7v30.2c0,0.4,0.3,0.7,0.7,0.7h44
			c0.4,0,0.7-0.3,0.7-0.7V67.7h11.1v21.7c0,0.4,0.3,0.7,0.7,0.7h44c0.4,0,0.7-0.3,0.7-0.7V59.2C127.1,58.8,126.8,58.5,126.5,58.5z"
			/>
		<path class="st2" d="M62.4,82.2H33.6c-0.6,0-1.2-0.5-1.2-1.2V65.7c0-0.6,0.5-1.2,1.2-1.2h28.8c0.6,0,1.2,0.5,1.2,1.2v15.4
			C63.5,81.7,63,82.2,62.4,82.2z"/>
		<path class="st0" d="M134.7,67.8h-12.6c-0.2,0-0.4-0.2-0.4-0.4v-8.5c0-0.2,0.2-0.4,0.4-0.4h12.6c0.2,0,0.4,0.2,0.4,0.4v8.5
			C135.1,67.6,134.9,67.8,134.7,67.8z"/>
		<path class="st3" d="M118.8,82.2H90c-0.6,0-1.2-0.5-1.2-1.2V65.7c0-0.6,0.5-1.2,1.2-1.2h28.8c0.6,0,1.2,0.5,1.2,1.2v15.4
			C120,81.7,119.5,82.2,118.8,82.2z"/>
		<path class="st4" d="M126.5,58.5H120V90h6.5c0.4,0,0.7-0.3,0.7-0.7V59.2C127.1,58.8,126.8,58.5,126.5,58.5z"/>
		<path class="st5" d="M62.4,64.5h-6v17.7h6c0.6,0,1.2-0.5,1.2-1.2V65.7C63.5,65,63,64.5,62.4,64.5z"/>
	</g>
</g>
</svg>
